<svg xmlns="http://www.w3.org/2000/svg" viewBox="0 0 16 16" width="16" height="16"><title>Slice 1</title><path d="M7.971 14.787v.947c-1.211 0-2.162-.424-2.437-.604zM6.675 11.16c.501-.03.987.14 1.296.332l2.163-.303a3.373 3.373 0 0 0-.894-.39zm.896-1.977l1.545-.217a3.298 3.298 0 0 0-.864-.394l-2.735.384a5.942 5.942 0 0 1 2.054.227zm-.395-1.488a6.483 6.483 0 0 1 1.867.045l1.481-.209a2.674 2.674 0 0 0-.507-.236zm-.132-1.01a7.379 7.379 0 0 1 2.003.024l1.549-.217a2.587 2.587 0 0 0-.53-.232zm-.1-3.59a9.812 9.812 0 0 1 2.12.01l1.784-.25a3.403 3.403 0 0 0-.568-.228zM6.8 2.089a10.522 10.522 0 0 1 2.27-.011l1.85-.26a3.445 3.445 0 0 0-.582-.225zM10.99.777C10.18.379 8.884.266 7.971.266v.725c.33 0 .711.016 1.1.056z" fill="#2e2016"/><path d="M10.99.777l-.048.729-5.884.827-.048-.715zM5.468 8.243l.049.714 4.955-.695.052-.73zm-.072-1.019l.05.715 5.098-.717.052-.73zM5.15 3.656l.225 3.263 5.243-.736.23-3.327zm-.07-1.018l.05.715 5.738-.808.05-.729zm.455 12.492l4.826-.678-.227-3.262-4.37.613zm1.14-3.97l2.568-.36-.127-1.833-2.312.325zm2.342-6.308a1.047 1.047 0 1 1-2.094 0 1.047 1.047 0 0 1 2.094 0z" fill="#dfad4c"/><path d="M9.017 4.852a1.047 1.047 0 1 1-2.094 0 1.047 1.047 0 0 1 2.094 0" fill="#008e5d"/><path d="M7.683 4.763l.272-.197.272.197-.103.318h-.336zm.272-.772q.172 0 .33.067.157.067.27.18.114.114.181.272.067.157.067.33 0 .171-.067.329-.067.157-.18.27-.114.114-.271.181-.158.068-.33.068-.172 0-.33-.068-.157-.067-.27-.18-.114-.114-.181-.271-.067-.158-.067-.33 0-.172.067-.33.067-.157.18-.27.114-.114.272-.181.157-.067.33-.067zm.586 1.278q.141-.192.141-.43v-.003l-.096.085-.228-.213.06-.305.127.011q-.142-.195-.368-.267l.05.117-.272.15-.272-.15.05-.117q-.226.072-.368.267l.128-.011.059.305-.228.213-.096-.085v.003q0 .238.14.43l.03-.125.308.038.132.282-.11.065q.11.037.227.037t.227-.037l-.11-.065.132-.282.309-.038z" fill="#fff"/></svg>