<svg xmlns="http://www.w3.org/2000/svg" viewBox="0 0 16 16" width="16" height="16"><title>Slice 1</title><path d="M7.959 14.787v.947c-1.733 0-3.094-.424-3.487-.604zM6.104 11.16c.717-.03 1.412.14 1.855.332l3.094-.303a4.826 3.373 0 0 0-1.279-.39zm1.282-1.977l2.21-.217a4.719 3.298 0 0 0-1.235-.394l-3.914.384a8.502 5.942 0 0 1 2.94.227zm-.565-1.488a9.276 6.483 0 0 1 2.671.045l2.12-.209a3.826 2.674 0 0 0-.726-.236zm-.189-1.01a10.558 7.379 0 0 1 2.866.024l2.216-.217a3.702 2.587 0 0 0-.758-.232zm-.143-3.59a14.04 9.812 0 0 1 3.033.01l2.553-.25a4.87 3.403 0 0 0-.813-.228zm-.206-1.006a15.055 10.522 0 0 1 3.248-.011l2.647-.26a4.93 3.445 0 0 0-.833-.225zM12.278.777C11.12.379 9.265.266 7.958.266v.725c.473 0 1.018.016 1.574.056z" fill="#2e2016"/><path d="M12.278.777l-.069.729-8.418.827-.07-.715zm-7.9 7.466l.07.714 7.089-.695.074-.73zm-.104-1.019l.072.715 7.294-.717.074-.73zm-.352-3.568l.322 3.263 7.502-.736.329-3.327zm-.1-1.018l.072.715 8.21-.808.071-.729zm.651 12.492l6.905-.678-.325-3.262-6.252.613zm1.631-3.97l3.675-.36-.182-1.833-3.308.325zm3.351-6.308a1.498 1.047 0 1 1-2.996 0 1.498 1.047 0 0 1 2.996 0z" fill="#dfad4c"/><path d="M9.455 4.852a1.498 1.047 0 1 1-2.996 0 1.498 1.047 0 0 1 2.996 0" fill="#008e5d"/><path d="M7.546 4.763l.39-.197.389.197-.148.318h-.48zm.39-.772q.246 0 .472.067.224.067.386.18.163.114.26.272.095.157.095.33 0 .171-.096.329-.096.157-.257.27-.164.114-.388.181-.226.068-.472.068-.246 0-.473-.068-.224-.067-.386-.18-.163-.114-.259-.271-.096-.158-.096-.33 0-.172.096-.33.096-.157.258-.27.163-.114.389-.181.225-.067.472-.067zm.838 1.278q.202-.192.202-.43v-.003l-.138.085-.326-.213.086-.305.182.011q-.203-.195-.527-.267l.072.117-.39.15-.389-.15.072-.117q-.323.072-.527.267l.184-.011.084.305-.326.213-.138-.085v.003q0 .238.2.43l.044-.125.44.038.19.282-.158.065q.157.037.325.037.167 0 .324-.037l-.157-.065.189-.282.442-.038z" fill="#fff"/></svg>