<svg xmlns="http://www.w3.org/2000/svg" width="13" height="13" viewBox="0 0 24 24"><path d="M8.634 11.062L12 8.622l3.366 2.44-1.279 3.94H9.924zM12 1.492q2.134 0 4.081.833 1.947.833 3.354 2.24 1.407 1.407 2.24 3.354.832 1.947.832 4.081 0 2.134-.832 4.081-.833 1.947-2.24 3.354-1.407 1.407-3.354 2.24-1.947.832-4.081.832-2.134 0-4.081-.832-1.947-.833-3.354-2.24-1.407-1.407-2.24-3.354-.832-1.947-.832-4.081 0-2.134.832-4.08.833-1.948 2.24-3.355 1.407-1.407 3.354-2.24Q9.866 1.493 12 1.493zm7.259 15.832q1.747-2.38 1.747-5.324v-.035L19.81 13.01l-2.814-2.627.738-3.788 1.572.141q-1.76-2.415-4.562-3.306l.622 1.454L12 6.746 8.634 4.882l.622-1.454q-2.803.89-4.562 3.307l1.583-.142.727 3.788-2.814 2.627-1.196-1.043V12q0 2.943 1.747 5.324l.352-1.548 3.823.47 1.63 3.494-1.36.809q1.372.457 2.814.457t2.814-.457l-1.36-.81 1.63-3.494 3.823-.469z" fill="#91979c"/></svg>